<svg id="Layer_1" enable-background="new 0 0 256 256" height="512" viewBox="0 0 256 256" width="512" xmlns="http://www.w3.org/2000/svg"><path d="m202.334 238.598h-74.818v-155.1c0-4.418 3.582-8 8-8h58.818c4.418 0 8 3.582 8 8z" fill="#e0ebfc"/><path d="m127.516 137.469h-79.941c-2.209 0-4-1.791-4-4v-33.97c0-2.209 1.791-4 4-4h79.942v41.97z" fill="#e0ebfc"/><path d="m95.301 144.312h-41.62c-1.105 0-2-.895-2-2v-4.843h45.62v4.843c0 1.105-.895 2-2 2z" fill="#a4c9ff"/><path d="m88.313 151.156h-27.644c-1.105 0-2-.895-2-2v-4.843h31.644v4.843c0 1.104-.895 2-2 2z" fill="#6bdddd"/><path d="m87.729 173.645c-.015-.157-.038-.311-.061-.464h.002c-.915-7.603-6.433-11.765-7.845-12.715-.201-.135-.458-.135-.659 0-1.413.95-6.93 5.112-7.845 12.715h.011c-.066.434-.112.875-.112 1.328 0 4.75 3.705 8.6 8.275 8.6s8.275-3.85 8.275-8.6c0-.291-.014-.579-.041-.864z" fill="#a4c9ff"/><path d="m89.656 218.208c-.031-.32-.077-.634-.124-.948h.005c-1.867-15.514-13.126-24.007-16.009-25.945-.41-.275-.934-.275-1.344 0-2.883 1.938-14.142 10.431-16.009 25.945h.023c-.134.886-.228 1.786-.228 2.71 0 9.692 7.56 17.549 16.885 17.549s16.885-7.856 16.885-17.549c.001-.594-.028-1.182-.084-1.762z" fill="#a4c9ff"/><g fill="#3762cc"><path d="m202.334 240.598h-74.817c-1.104 0-2-.896-2-2v-155.1c0-5.514 4.486-10 10-10h58.817c5.514 0 10 4.486 10 10v155.1c0 1.105-.896 2-2 2zm-72.817-4h70.817v-153.1c0-3.309-2.691-6-6-6h-58.817c-3.309 0-6 2.691-6 6z"/><path d="m127.517 139.469h-79.942c-3.309 0-6-2.691-6-6v-33.97c0-3.309 2.691-6 6-6h79.942c1.104 0 2 .896 2 2v41.971c0 1.104-.896 1.999-2 1.999zm-79.942-41.97c-1.103 0-2 .897-2 2v33.971c0 1.103.897 2 2 2h77.942v-37.971z"/><path d="m95.301 146.313h-41.62c-2.206 0-4-1.794-4-4v-4.843c0-1.104.896-2 2-2h45.621c1.104 0 2 .896 2 2v4.843c-.001 2.205-1.795 4-4.001 4zm-41.62-6.844v2.843h41.623l-.001-2.843z"/><path d="m88.313 153.156h-27.644c-2.206 0-4-1.794-4-4v-4.843c0-1.104.896-2 2-2h31.644c1.104 0 2 .896 2 2v4.843c0 2.205-1.794 4-4 4zm-27.644-6.843v2.843h27.646l-.001-2.843z"/></g><path d="m212.425 248.999h-95v-13.4c0-2.761 2.239-5 5-5h85c2.761 0 5 2.239 5 5z" fill="#6bdddd"/><path d="m188.334 230.598h-46.817v-50.201c0-2.761 2.239-5 5-5h36.817c2.761 0 5 2.239 5 5z" fill="#4671c6"/><path d="m171.765 202.998h-13.68c-3.816 0-6.91-3.094-6.91-6.91v-.007c0-3.816 3.094-6.91 6.91-6.91h13.68c3.816 0 6.91 3.094 6.91 6.91v.007c0 3.816-3.094 6.91-6.91 6.91z" fill="#f9a7a7"/><path d="m176.957 45.104c-3.368-2.955-7.592-4.583-11.977-4.583-4.332.02-8.571 1.688-11.933 4.695-1.048.937-1.628 2.327-1.592 3.815.037 1.5.69 2.873 1.793 3.767.764.619 1.673.947 2.629.947h.001c1.027 0 2.036-.392 2.842-1.102 1.81-1.596 3.99-2.445 6.35-2.456 2.299 0 4.471.829 6.284 2.397.801.694 1.801 1.076 2.815 1.076.969 0 1.888-.336 2.658-.972 1.095-.904 1.736-2.283 1.758-3.783.021-1.489-.572-2.874-1.628-3.801z" fill="#f9cfcf"/><path d="m189.693 35.301c-6.532-7.442-15.283-11.54-24.643-11.54h-.148c-9.417.044-18.182 4.225-24.682 11.772-.874 1.014-1.303 2.391-1.179 3.777.121 1.355.765 2.597 1.77 3.41.765.62 1.674.948 2.627.948 1.233 0 2.429-.566 3.283-1.555 4.812-5.57 11.286-8.655 18.227-8.688h.109c6.899 0 13.362 3.025 18.199 8.517.853.968 2.04 1.524 3.259 1.524.967 0 1.885-.336 2.658-.975.994-.821 1.627-2.069 1.736-3.425.11-1.386-.333-2.759-1.216-3.765z" fill="#f9cfcf"/><path d="m202.043 25.389c-9.408-11.686-22.896-18.388-37.006-18.388l-.214.001c-14.192.067-27.695 6.896-37.046 18.736-1.677 2.124-1.344 5.336.732 7.017.772.626 1.689.956 2.65.956h.001c1.288 0 2.505-.607 3.34-1.665 7.674-9.72 18.743-15.326 30.37-15.381h.175c11.559 0 22.616 5.502 30.336 15.095.835 1.038 2.045 1.633 3.317 1.633.976 0 1.902-.339 2.684-.984 2.055-1.697 2.358-4.912.661-7.02z" fill="#f9a7a7"/><ellipse cx="165.019" cy="63.713" fill="#f9a7a7" rx="5.369" ry="5.388"/><path d="m212.425 250.999h-95c-1.104 0-2-.896-2-2v-13.4c0-3.86 3.14-7 7-7h85c3.859 0 7 3.14 7 7v13.4c0 1.104-.896 2-2 2zm-93-4h91v-11.4c0-1.654-1.346-3-3-3h-85c-1.654 0-3 1.346-3 3z" fill="#3762cc"/><path d="m188.334 232.598h-46.817c-1.104 0-2-.896-2-2v-50.201c0-3.86 3.141-7 7-7h36.817c3.859 0 7 3.14 7 7v50.201c0 1.105-.896 2-2 2zm-44.817-4h42.817v-48.201c0-1.654-1.346-3-3-3h-36.817c-1.654 0-3 1.346-3 3z" fill="#3762cc"/></svg>